<?xml version="1.0" standalone="no"?>
<!DOCTYPE svg PUBLIC "-//W3C//DTD SVG 20010904//EN" "http://www.w3.org/TR/2001/REC-SVG-20010904/DTD/svg10.dtd">
<!-- Created using Karbon14, part of koffice: http://www.koffice.org/karbon -->
<svg xmlns="http://www.w3.org/2000/svg" xmlns:xlink="http://www.w3.org/1999/xlink" width="595.277pt" height="841.891pt">
  <defs>
  </defs>
  <g id="defitem5">
    <path id="defitem6" fill="none" stroke="#303030" stroke-width="2.66457" stroke-linecap="square" stroke-linejoin="bevel" stroke-dasharray=" 2.27198,4.54396" d="M0 0C137.334 0 137.334 0 137.334 0"  transform="translate(552.224, 386.177)" />
    <g id="defitem7" transform="translate(109.748, 244.715)" fill="none">
      <ellipse id="defitem8" rx="62.008pt" ry="97.0243pt" cx="62.008pt" cy="97.0243pt" transform="matrix(0.999988 0.00498796 -0.00498796 0.999988 355.239 21.0608)" fill="#a0a0a0" fill-rule="evenodd" stroke="#303030" stroke-width="1.25" stroke-linecap="square" stroke-linejoin="miter" stroke-miterlimit="2"/>
      <rect id="defitem9" transform="matrix(0.999988 0.00498796 -0.00498796 0.999988 76.2064 19.669)" fill="#a0a0a0" fill-rule="evenodd" width="285.966pt" height="194.049pt"/>
      <path id="defitem10" fill="#a0a0a0" fill-rule="evenodd" stroke="#000000" stroke-width="1.25" stroke-linecap="square" stroke-linejoin="miter" stroke-miterlimit="2" d="M155.02 121.147C155.02 54.2396 120.318 4.09679e-15 77.51 0C34.7024 -4.09679e-15 5.24224e-15 54.2396 0 121.147C-5.24224e-15 188.055 34.7024 242.295 77.51 242.295C120.318 242.295 155.02 188.055 155.02 121.147"  transform="matrix(0.999988 0.00498796 -0.00498796 0.999988 1.16636 19.2947)" />
    </g>
    <g id="defitem11" transform="translate(73.6238, 602.782)" fill="none">
    </g>
    <path id="defitem12" fill="none" stroke="#303030" stroke-width="2.66457" stroke-linecap="square" stroke-linejoin="bevel" stroke-dasharray=" 2.13166,4.26331" d="M0 0C137.334 0 137.334 0 137.334 0"  transform="translate(43.0843, 384.855)" />
  </g>
</svg>
